<?xml version="1.0" standalone="no"?>
<!DOCTYPE svg PUBLIC "-//W3C//DTD SVG 20010904//EN"
 "http://www.w3.org/TR/2001/REC-SVG-20010904/DTD/svg10.dtd">
<svg version="1.0" xmlns="http://www.w3.org/2000/svg"
 width="1000.000000pt" height="1000.000000pt" viewBox="0 0 1000.000000 1000.000000"
 preserveAspectRatio="xMidYMid meet">
<metadata>
Created by potrace 1.14, written by Peter Selinger 2001-2017
</metadata>
<g transform="translate(0.000000,1000.000000) scale(0.100000,-0.100000)"
fill="#000000" stroke="none">
<path d="M5555 9991 c-4 -3 -10 -7 -13 -7 -29 -6 -51 -18 -56 -30 -3 -7 -12
-11 -21 -8 -8 4 -17 -1 -21 -10 -3 -9 -10 -14 -15 -11 -8 6 -36 -14 -71 -50
-18 -19 -19 -19 -12 -1 5 13 -3 9 -23 -12 -17 -18 -33 -32 -37 -32 -7 0 -33
-22 -87 -72 -11 -10 -23 -18 -29 -18 -6 0 -9 -6 -7 -12 1 -7 -2 -13 -8 -12
-12 1 -175 -163 -168 -170 3 -2 -5 -9 -16 -16 -12 -6 -19 -15 -16 -21 4 -5 -1
-9 -10 -9 -9 0 -14 -4 -10 -9 3 -6 -4 -15 -16 -21 -11 -7 -18 -14 -15 -17 2
-3 -6 -15 -18 -28 -13 -13 -33 -39 -45 -59 -13 -20 -26 -36 -29 -36 -4 0 -13
-13 -20 -28 -6 -16 -21 -38 -32 -50 -11 -12 -20 -28 -20 -37 0 -9 -7 -18 -15
-21 -8 -4 -15 -12 -15 -20 0 -7 -8 -18 -17 -23 -10 -6 -15 -11 -11 -11 4 0 -6
-22 -22 -50 -16 -27 -27 -50 -24 -50 3 0 -2 -7 -10 -16 -9 -8 -16 -22 -16 -30
0 -8 -4 -14 -9 -14 -5 0 -14 -20 -20 -45 -6 -25 -16 -45 -21 -45 -5 0 -8 -6
-6 -12 1 -7 1 -10 -1 -5 -3 4 -10 4 -16 0 -7 -3 -9 -2 -4 2 4 5 -1 17 -10 28
-13 15 -14 18 -3 13 8 -5 2 4 -15 19 -16 14 -24 23 -16 19 9 -5 12 -3 7 4 -4
7 -14 12 -21 12 -9 0 -12 6 -8 17 4 11 3 14 -5 9 -7 -4 -12 -1 -12 8 0 9 -5
15 -12 13 -7 -1 -17 8 -23 21 -5 12 -16 20 -23 17 -7 -3 -11 -1 -9 3 5 9 -79
92 -87 85 -3 -4 -6 1 -6 10 0 9 -7 17 -15 17 -9 0 -18 7 -21 15 -4 8 -10 12
-15 9 -5 -3 -9 2 -9 10 0 14 -12 20 -32 17 -5 0 -7 2 -5 7 1 4 -1 8 -5 10 -5
1 -16 10 -26 20 -31 29 -62 52 -62 47 0 -3 -10 3 -22 15 -12 11 -28 20 -35 20
-7 0 -13 4 -13 8 0 4 -26 21 -57 37 -32 17 -61 34 -65 40 -4 5 -8 6 -8 1 0 -5
-7 -3 -15 4 -8 7 -15 9 -15 4 0 -4 -5 -3 -12 4 -7 7 -20 12 -30 12 -10 0 -18
5 -18 11 0 5 -5 7 -10 4 -6 -4 -17 -2 -24 4 -7 6 -25 12 -40 13 -14 1 -26 6
-26 10 0 4 -7 5 -15 2 -8 -4 -21 -2 -28 3 -11 8 -35 9 -103 4 -11 0 -34 -13
-50 -27 -16 -15 -22 -23 -14 -19 13 6 13 5 0 -7 -8 -7 -16 -20 -18 -28 -2 -8
-11 -23 -19 -32 -11 -12 -12 -18 -4 -18 7 0 9 -5 4 -12 -11 -18 -15 -50 -5
-44 4 2 8 -3 9 -12 3 -38 7 -61 11 -57 3 2 17 -9 32 -25 16 -17 32 -30 37 -30
5 0 16 -9 26 -20 9 -11 24 -20 32 -20 9 0 14 -3 12 -7 -3 -5 1 -14 9 -21 8 -7
14 -9 14 -5 0 4 7 -1 15 -11 8 -11 15 -16 15 -12 0 7 18 -6 77 -54 7 -6 16
-10 21 -10 5 0 17 -10 26 -22 9 -13 14 -16 10 -8 -3 8 5 2 20 -15 14 -16 25
-26 26 -21 0 5 16 -7 35 -27 19 -20 35 -33 35 -30 0 3 9 -4 20 -17 11 -13 20
-20 20 -16 0 4 18 -12 40 -34 22 -22 40 -38 40 -35 0 3 6 0 14 -7 8 -7 12 -16
10 -20 -3 -4 4 -12 15 -17 10 -6 28 -25 38 -44 16 -26 17 -35 7 -44 -6 -7 -14
-9 -18 -6 -3 3 -12 1 -19 -5 -8 -7 -17 -9 -20 -5 -4 3 -7 1 -7 -6 0 -7 -4 -10
-9 -7 -5 3 -14 -1 -21 -9 -7 -8 -16 -12 -21 -9 -5 3 -9 1 -9 -4 0 -6 -15 -13
-34 -16 -19 -4 -36 -10 -38 -14 -4 -9 -66 -42 -79 -42 -6 0 -27 -12 -47 -27
-20 -16 -33 -21 -28 -13 4 8 -2 4 -13 -9 -12 -13 -21 -20 -21 -16 0 4 -6 2
-13 -4 -8 -6 -17 -8 -20 -4 -4 3 -7 1 -7 -5 0 -6 -16 -19 -35 -28 -19 -9 -35
-21 -35 -27 0 -6 -3 -7 -7 -4 -3 4 -12 -2 -20 -13 -8 -11 -19 -20 -25 -20 -7
0 -3 7 8 16 18 14 18 15 -3 4 -13 -6 -23 -14 -23 -18 0 -4 -9 -13 -21 -20 -17
-11 -20 -11 -14 0 5 7 -1 4 -12 -7 -11 -11 -18 -24 -15 -30 3 -5 2 -7 -3 -3
-4 4 -14 3 -22 -3 -7 -6 -13 -8 -13 -4 0 4 -7 2 -15 -5 -8 -7 -12 -16 -9 -21
5 -8 -18 -14 -39 -10 -5 1 -6 -2 -4 -6 3 -5 -1 -14 -9 -21 -8 -7 -14 -10 -14
-6 0 4 -11 -5 -24 -19 -13 -14 -26 -23 -29 -20 -3 3 -12 -4 -19 -16 -7 -12
-17 -21 -23 -21 -6 0 -17 -9 -25 -19 -7 -11 -17 -18 -22 -15 -4 3 -8 -3 -8
-12 0 -10 -3 -15 -6 -11 -4 3 -15 -4 -26 -16 -11 -12 -16 -16 -12 -8 4 8 -20
-12 -53 -45 -67 -65 -103 -96 -103 -89 0 3 -18 -13 -40 -35 -22 -22 -40 -37
-40 -34 0 3 -20 -15 -44 -40 -24 -25 -49 -46 -55 -46 -7 0 -10 -4 -6 -9 3 -5
-4 -12 -15 -16 -11 -3 -20 -13 -20 -21 0 -8 -5 -12 -10 -9 -6 3 -13 -1 -16
-10 -4 -11 -13 -14 -28 -9 -17 5 -19 4 -9 -6 10 -10 7 -18 -10 -36 -12 -13
-28 -24 -35 -24 -7 0 -11 -4 -7 -9 3 -6 -4 -15 -15 -21 -11 -6 -20 -17 -20
-25 0 -7 -11 -22 -25 -33 -13 -11 -21 -22 -18 -26 3 -3 -1 -6 -11 -6 -9 0 -15
-4 -12 -8 7 -12 -23 -54 -35 -47 -5 3 -6 -1 -3 -9 4 -9 -1 -18 -10 -22 -9 -3
-13 -10 -10 -15 3 -5 0 -9 -5 -9 -6 0 -11 -7 -11 -15 0 -7 -8 -18 -18 -24 -9
-5 -16 -13 -16 -18 2 -13 -19 -53 -28 -53 -4 0 -8 -10 -8 -22 0 -21 0 -21 -22
-2 -16 13 -19 14 -10 2 10 -12 10 -18 1 -24 -8 -4 -9 -3 -5 4 4 7 -3 14 -18
18 -32 8 -51 -3 -36 -21 8 -10 7 -14 -2 -18 -7 -3 4 -6 25 -6 20 -1 37 -5 37
-11 0 -5 -3 -10 -8 -10 -4 0 -15 -17 -24 -37 -10 -21 -24 -49 -32 -63 -7 -14
-20 -38 -27 -55 -8 -16 -17 -32 -20 -35 -3 -3 -12 -23 -21 -45 -9 -22 -29 -69
-46 -105 -16 -36 -37 -83 -46 -105 -10 -22 -26 -57 -36 -78 -11 -21 -14 -35
-7 -31 7 4 4 -2 -6 -13 -10 -11 -19 -30 -20 -42 -1 -11 -5 -21 -10 -21 -4 0
-5 -4 -2 -10 3 -5 2 -10 -2 -10 -5 0 -9 -10 -10 -22 -1 -11 -8 -25 -15 -29 -7
-5 -10 -9 -5 -9 4 0 1 -16 -7 -35 -8 -19 -13 -35 -10 -35 3 0 -1 -10 -8 -22
-13 -25 -15 -30 -17 -54 0 -8 -5 -13 -9 -10 -4 2 -8 -8 -7 -22 0 -19 -5 -26
-15 -24 -12 3 -12 1 -3 -9 9 -9 9 -18 2 -31 -6 -11 -8 -22 -5 -25 3 -3 -1 -14
-8 -25 -8 -11 -11 -29 -8 -40 3 -13 1 -19 -5 -15 -7 4 -13 -12 -18 -41 -4 -26
-11 -52 -16 -58 -5 -6 -7 -20 -4 -32 2 -12 0 -22 -4 -22 -14 0 -20 -37 -8 -49
8 -8 8 -11 -1 -11 -7 0 -12 -7 -12 -15 0 -8 -4 -15 -9 -15 -4 0 -7 -10 -6 -22
3 -30 -17 -88 -30 -85 -5 1 -11 -6 -13 -17 -3 -11 0 -16 7 -12 8 5 8 0 1 -18
-6 -16 -5 -26 1 -28 6 -2 5 -14 -4 -31 -8 -14 -16 -25 -19 -22 -2 3 -5 -2 -5
-10 0 -8 5 -15 11 -15 6 0 5 -4 -3 -9 -8 -5 -14 -23 -14 -40 0 -16 -4 -28 -9
-25 -4 3 -9 -3 -9 -13 -1 -10 -2 -22 -4 -28 -1 -5 -3 -25 -3 -42 -1 -18 -7
-32 -13 -30 -6 1 -12 -22 -15 -58 -2 -33 -5 -67 -6 -75 -1 -8 -10 -23 -21 -32
-13 -12 -18 -26 -15 -46 2 -16 -2 -34 -10 -41 -11 -11 -11 -16 1 -29 18 -23
11 -58 -9 -41 -11 9 -14 8 -15 -2 -1 -8 -2 -21 -3 -29 0 -8 4 -18 9 -22 6 -5
5 -8 -2 -8 -7 0 -10 -7 -6 -17 4 -10 2 -14 -4 -10 -12 8 -30 -11 -29 -31 1 -7
8 -17 16 -22 12 -8 12 -10 1 -10 -7 0 -11 -6 -8 -14 3 -8 -1 -17 -9 -20 -9 -3
-12 -10 -9 -16 3 -5 2 -10 -4 -10 -6 0 -8 -6 -6 -12 2 -7 7 -31 10 -52 3 -22
10 -45 16 -52 7 -9 5 -12 -8 -10 -30 5 -47 -30 -33 -64 7 -16 9 -42 6 -56 -4
-16 -3 -30 4 -34 8 -5 7 -11 -4 -22 -9 -10 -13 -24 -9 -38 5 -17 3 -21 -6 -15
-10 6 -11 3 -2 -12 6 -11 8 -23 5 -26 -3 -3 -2 -12 2 -19 5 -7 8 -24 9 -38 0
-14 4 -23 9 -22 12 5 26 -20 18 -33 -10 -16 -13 -36 -13 -88 0 -31 -4 -45 -11
-41 -7 5 -8 2 -3 -6 11 -17 13 -70 3 -63 -5 2 -8 0 -8 -6 0 -5 5 -13 10 -16 6
-4 7 -12 3 -18 -12 -19 -11 -97 1 -97 6 0 4 -5 -4 -10 -12 -7 -12 -10 -1 -10
7 0 11 -6 8 -15 -4 -8 -2 -17 4 -20 5 -4 7 -10 4 -15 -9 -15 56 -72 77 -67 17
5 19 1 15 -29 -3 -20 -8 -38 -11 -41 -3 -3 -1 -12 5 -20 9 -9 8 -13 0 -13 -10
0 -15 12 -13 30 0 3 -8 7 -19 7 -10 1 -19 -3 -19 -8 0 -6 6 -7 13 -4 6 4 3 -1
-7 -9 -15 -12 -16 -16 -5 -16 8 0 2 -8 -13 -18 -16 -9 -28 -20 -28 -25 0 -4
-4 -5 -10 -2 -6 3 -7 -1 -4 -9 4 -9 1 -16 -6 -16 -8 0 -11 -11 -8 -30 3 -22 0
-30 -11 -31 -14 0 -14 -1 -1 -6 20 -8 35 -24 43 -46 5 -14 11 -16 26 -8 16 9
19 8 17 -7 -2 -9 -11 -17 -21 -17 -10 0 -20 -6 -23 -14 -3 -10 0 -11 9 -5 11
6 10 3 -1 -11 -14 -17 -13 -18 7 -13 13 4 26 1 30 -4 3 -7 1 -8 -5 -4 -7 4
-12 2 -12 -3 0 -6 4 -11 9 -11 15 0 20 -38 5 -44 -8 -3 -11 0 -7 10 3 7 0 14
-6 14 -6 0 -10 -11 -9 -24 1 -14 6 -22 10 -20 4 3 8 -2 8 -10 0 -9 -6 -16 -12
-16 -8 0 -9 -3 -3 -8 6 -4 11 -15 11 -25 2 -13 -1 -15 -11 -7 -10 8 -15 8 -21
-1 -5 -8 -3 -9 6 -4 10 6 12 4 7 -9 -4 -9 -3 -15 2 -12 5 3 12 -1 15 -10 10
-26 7 -36 -9 -30 -15 5 -19 -5 -16 -33 2 -7 -2 -10 -8 -6 -7 4 -8 0 -4 -11 4
-11 8 -13 11 -6 2 7 9 9 14 6 6 -4 8 -2 4 4 -3 6 -2 13 4 17 5 3 10 3 11 -2 0
-4 3 -17 5 -28 3 -11 6 -26 6 -32 1 -7 6 -13 11 -13 6 0 7 -3 4 -7 -4 -3 -1
-13 6 -21 10 -13 9 -14 -3 -7 -12 6 -13 5 -3 -6 16 -16 17 -53 2 -43 -8 4 -8
0 0 -15 7 -11 16 -21 22 -21 6 0 8 -4 5 -8 -3 -5 8 -8 23 -7 44 3 101 -23 94
-42 -5 -12 -3 -14 8 -8 11 7 11 5 -1 -10 -14 -17 -13 -18 2 -12 9 3 18 1 21
-6 2 -8 5 -8 11 1 4 7 2 12 -3 12 -6 0 -11 8 -11 17 0 14 3 14 15 -5 13 -18
22 -21 53 -16 20 3 42 10 47 16 7 8 5 9 -5 4 -8 -4 -6 0 4 8 16 13 22 13 28 3
5 -8 8 -7 8 6 0 10 5 15 10 12 6 -3 10 -1 10 5 0 6 4 9 9 5 6 -3 13 0 18 7 4
7 17 20 27 28 18 14 19 13 14 -12 -3 -17 -1 -28 6 -28 6 0 5 -4 -2 -9 -8 -5
-12 -17 -10 -27 2 -11 -5 -27 -16 -37 -10 -9 -16 -17 -12 -17 4 0 -2 -12 -13
-26 -12 -15 -21 -35 -21 -45 0 -11 -5 -19 -11 -19 -5 0 -8 -4 -4 -9 3 -5 1
-12 -4 -16 -5 -3 -8 -14 -6 -25 2 -11 -4 -24 -13 -30 -9 -5 -12 -10 -7 -10 8
0 12 -58 5 -67 -5 -6 -8 -25 -9 -59 0 -20 -5 -33 -11 -29 -6 3 -7 -1 -4 -9 3
-9 11 -13 18 -10 6 3 2 -2 -8 -10 -14 -11 -15 -16 -6 -16 11 0 11 -3 2 -12 -8
-8 -9 -15 -1 -25 7 -7 7 -13 2 -13 -5 0 -10 -11 -11 -26 -1 -17 2 -23 11 -19
6 4 3 -1 -7 -9 -11 -9 -15 -16 -9 -16 7 0 8 -14 3 -39 -4 -22 -3 -47 3 -56 7
-13 6 -16 -2 -11 -15 10 -14 -7 2 -23 10 -11 9 -13 -1 -7 -9 6 -11 -2 -6 -29
3 -22 2 -35 -4 -32 -5 4 -9 0 -9 -8 0 -8 5 -15 11 -15 6 0 6 -4 -1 -11 -6 -6
-9 -18 -6 -27 4 -10 2 -13 -5 -8 -9 5 -9 1 -3 -17 6 -14 8 -27 7 -28 -2 -2 -6
-17 -10 -33 -6 -24 -5 -28 6 -20 8 5 5 1 -5 -8 -11 -10 -14 -18 -8 -18 7 0 10
-10 7 -25 -3 -15 0 -25 7 -25 7 0 6 -4 -3 -10 -12 -8 -12 -10 -1 -10 10 0 11
-3 2 -14 -10 -11 -8 -17 6 -25 14 -8 15 -10 3 -11 -9 0 -11 -3 -5 -8 9 -6 13
-25 17 -72 0 -8 6 -21 12 -29 8 -11 8 -13 -1 -7 -7 4 -13 2 -13 -3 0 -6 5 -11
11 -11 6 0 9 -7 6 -15 -4 -8 -2 -17 4 -20 5 -4 7 -11 4 -16 -4 -5 -2 -9 4 -9
6 0 8 -6 5 -14 -3 -8 -1 -17 4 -20 6 -3 8 -15 5 -26 -3 -11 -1 -20 4 -20 5 0
10 -12 11 -27 1 -16 7 -30 13 -31 7 -3 6 -8 -1 -17 -8 -9 -7 -14 3 -18 9 -3
13 -16 12 -31 -2 -14 1 -24 5 -21 5 3 11 1 15 -5 3 -5 0 -10 -7 -10 -9 0 -9
-3 2 -10 8 -5 12 -10 7 -10 -4 0 -1 -10 8 -23 8 -13 12 -27 8 -30 -3 -4 -2 -7
4 -7 5 0 10 -6 10 -12 0 -7 13 -40 29 -73 15 -33 27 -63 26 -67 -1 -5 3 -8 10
-8 6 0 9 -3 5 -6 -3 -4 1 -13 9 -21 8 -8 12 -19 9 -24 -4 -5 -2 -9 2 -9 5 0
24 -30 43 -68 32 -61 52 -91 88 -128 7 -8 11 -14 7 -14 -4 0 0 -6 7 -14 31
-33 63 -80 60 -89 -2 -5 4 -7 12 -4 9 4 15 3 14 -1 -4 -15 24 -52 34 -46 7 4
8 3 4 -4 -4 -7 -2 -12 4 -12 6 0 8 -4 5 -10 -3 -5 1 -10 9 -10 9 0 15 -4 14
-9 -3 -10 70 -81 83 -81 5 0 5 -7 2 -17 -4 -9 -2 -14 3 -10 6 3 23 -6 39 -21
16 -15 33 -26 37 -24 5 1 8 -5 8 -13 0 -8 11 -17 25 -21 14 -3 23 -9 20 -14
-2 -4 7 -13 20 -20 13 -7 22 -17 19 -22 -3 -5 -2 -8 3 -7 21 4 34 -2 27 -13
-4 -6 -3 -8 3 -5 5 4 19 -2 29 -11 24 -22 124 -84 124 -76 0 3 7 -1 15 -8 32
-29 42 -36 63 -42 12 -4 22 -12 22 -17 0 -5 3 -8 8 -7 11 3 102 -45 102 -54 0
-4 7 -5 15 -2 8 4 15 1 15 -6 0 -6 5 -8 10 -5 6 3 10 1 10 -4 0 -6 8 -11 18
-11 10 0 24 -6 31 -12 6 -7 15 -13 19 -13 4 -1 17 -6 28 -13 12 -6 24 -8 28
-5 3 3 6 1 6 -5 0 -7 3 -11 8 -10 4 0 25 -7 47 -17 22 -10 46 -18 53 -18 6 0
12 -4 12 -9 0 -5 5 -6 10 -3 6 3 10 1 10 -5 0 -6 4 -9 9 -5 5 3 13 0 16 -6 4
-5 13 -8 21 -5 8 3 14 1 14 -5 0 -6 4 -8 9 -4 5 3 12 1 16 -5 4 -6 11 -8 16
-5 5 4 9 1 9 -5 0 -7 6 -10 13 -7 7 3 24 -3 37 -13 12 -9 31 -15 41 -13 11 3
19 0 19 -7 0 -7 8 -10 20 -7 11 3 26 0 33 -6 6 -7 17 -12 22 -13 20 -1 70 -17
83 -27 8 -6 12 -5 12 4 0 12 2 12 9 0 5 -7 14 -10 20 -7 6 4 11 2 11 -4 0 -6
11 -8 25 -6 17 3 25 0 25 -10 0 -11 4 -13 17 -5 12 6 21 5 31 -7 9 -12 11 -12
6 -2 -5 10 1 8 16 -5 13 -11 20 -14 16 -7 -6 9 -2 12 10 10 11 -2 21 -6 24
-10 3 -4 20 -8 38 -10 18 -1 32 -7 32 -13 0 -5 5 -3 10 5 6 9 10 10 10 3 0 -6
9 -10 20 -8 11 2 22 0 25 -5 3 -5 23 -8 45 -6 28 2 41 -1 45 -13 5 -13 7 -14
16 -1 7 9 12 11 15 4 2 -6 20 -9 39 -8 22 2 35 -1 35 -9 0 -7 4 -6 10 3 9 13
10 13 10 0 0 -13 1 -13 10 0 6 9 10 10 10 3 0 -7 14 -10 38 -9 20 2 43 -2 51
-8 11 -8 13 -8 7 2 -4 6 -2 12 3 12 6 0 11 -4 11 -9 0 -4 16 -7 35 -6 19 1 35
-3 35 -7 0 -5 6 -6 12 -2 19 12 48 12 48 1 0 -5 7 -4 15 3 11 9 15 9 15 1 0
-9 5 -9 20 -1 11 6 20 7 20 3 0 -10 62 -9 78 1 6 3 14 2 17 -4 5 -8 11 -7 21
1 11 9 14 9 14 0 0 -9 5 -9 21 0 17 8 23 8 30 -2 5 -9 12 -10 21 -3 7 6 46 9
86 9 39 -1 72 2 72 5 0 4 15 6 34 3 19 -2 38 1 41 7 5 8 11 8 20 0 10 -8 15
-8 20 0 5 8 10 8 20 0 9 -8 15 -8 20 0 4 7 13 7 27 -1 15 -8 19 -8 13 0 -4 8
4 10 29 8 20 -2 36 -1 36 3 0 5 9 6 21 3 12 -4 25 0 30 8 7 11 9 11 9 1 0 -10
5 -10 20 -2 15 8 20 8 20 -1 0 -7 4 -8 13 -2 6 5 21 9 32 9 11 -1 26 5 33 12
8 7 19 9 25 5 19 -12 36 -12 43 -2 3 6 12 5 22 -3 13 -11 14 -11 7 1 -6 11 -4
13 8 8 9 -3 18 -1 21 6 5 9 7 9 12 0 4 -10 9 -9 21 3 13 13 17 13 24 2 7 -11
9 -11 9 1 0 11 3 11 17 0 9 -8 14 -9 10 -3 -4 7 0 15 9 18 23 9 26 8 18 -6 -4
-7 1 -5 12 4 14 13 23 14 38 6 14 -8 17 -7 12 1 -5 7 3 12 21 13 46 2 51 3 59
11 4 4 18 7 31 7 15 0 22 4 17 11 -5 8 -2 9 11 1 14 -7 22 -6 32 4 8 7 20 11
27 8 8 -3 17 -1 21 5 3 6 17 11 30 11 13 0 27 5 30 10 4 6 11 8 16 5 5 -4 9
-2 9 4 0 6 6 8 14 5 8 -3 17 0 21 6 6 9 10 9 16 -1 6 -10 9 -11 9 -1 0 6 7 12
15 12 8 0 15 5 15 11 0 6 7 9 15 5 8 -3 15 -1 15 5 0 6 4 8 9 4 5 -3 12 -1 16
5 4 6 11 8 16 5 5 -4 9 -1 9 6 0 6 8 9 20 6 11 -3 18 -1 14 4 -3 5 2 9 10 9 8
0 22 7 30 16 9 8 16 13 16 10 0 -3 16 3 35 14 20 11 42 20 50 20 8 0 15 5 15
10 0 6 7 10 15 10 8 0 15 4 15 9 0 8 37 24 53 22 4 -1 7 4 7 9 0 6 11 15 25
20 14 5 25 14 25 20 0 6 4 9 9 5 5 -3 16 2 25 11 9 8 20 13 26 9 6 -4 7 1 3
11 -4 11 -3 15 5 10 6 -3 28 8 49 26 21 18 44 38 51 43 7 6 36 31 64 58 28 26
55 47 60 47 4 0 8 5 8 11 0 6 20 31 45 56 25 25 44 47 42 50 -3 2 7 16 22 31
14 15 33 38 41 51 8 13 21 29 28 37 6 7 12 15 12 17 0 3 18 35 40 71 22 36 40
70 40 76 0 5 5 10 11 10 5 0 7 5 4 10 -3 6 -1 10 5 10 6 0 9 4 5 9 -3 5 2 16
10 24 8 9 15 23 15 31 0 9 5 16 10 16 6 0 9 3 8 7 -1 5 14 40 32 78 19 39 33
73 32 78 -1 4 2 7 8 7 6 0 9 3 9 8 -3 20 2 32 13 26 6 -4 8 -3 4 4 -3 6 -2 13
4 17 5 3 10 13 10 22 0 9 8 25 18 36 12 15 13 18 2 12 -12 -7 -13 -6 -3 7 7 8
10 18 6 21 -3 4 2 9 11 13 9 3 14 10 11 14 -7 11 20 72 28 63 4 -4 6 4 4 17
-2 14 2 31 10 39 8 7 12 20 9 27 -3 8 -2 14 2 14 4 0 13 9 20 21 8 12 9 18 3
14 -6 -3 -11 -1 -11 4 0 6 5 11 11 11 5 0 7 5 4 10 -3 6 -1 10 6 10 6 0 9 8 6
20 -3 10 0 21 6 23 10 3 15 18 21 59 1 9 7 23 14 31 7 7 9 16 6 20 -3 3 2 16
10 29 9 14 13 28 9 31 -3 4 -2 7 4 7 5 0 10 6 11 13 6 47 9 59 18 65 8 6 10
17 17 74 0 9 4 15 8 12 6 -4 24 73 20 90 -1 5 6 6 15 2 12 -5 15 -2 10 9 -3 9
16 -5 43 -32 55 -54 111 -103 111 -97 0 3 11 -3 25 -12 14 -9 25 -13 25 -9 0
4 6 3 13 -3 15 -13 113 -8 131 7 7 6 16 8 19 4 4 -3 7 -1 7 5 0 7 7 12 15 12
8 0 15 5 15 10 0 6 8 14 18 17 21 9 82 70 82 84 0 5 4 8 9 5 5 -3 14 8 21 24
7 17 17 30 22 30 5 0 7 4 4 9 -3 5 1 11 9 15 8 3 15 12 15 21 0 8 4 15 9 15 5
0 12 13 16 29 3 16 13 32 22 35 9 4 13 9 9 13 -3 3 0 13 8 22 8 9 14 18 14 21
-2 15 40 89 47 83 4 -5 5 -3 1 4 -7 12 11 52 29 65 7 5 7 8 0 8 -7 0 -7 3 0 8
16 11 52 65 59 90 4 12 12 22 17 22 6 0 7 5 3 12 -4 6 1 17 11 24 10 7 18 25
18 39 0 14 3 25 8 25 4 0 6 9 4 20 -2 11 0 20 4 20 7 0 14 13 25 50 1 3 4 10
8 15 4 6 3 17 -3 25 -13 21 -11 30 6 30 17 0 20 16 6 25 -6 3 -9 14 -8 25 1
15 6 18 20 14 14 -4 18 -2 15 7 -3 8 3 30 12 49 10 19 19 40 20 45 1 6 7 9 12
7 6 -1 0 10 -13 26 -13 16 -28 27 -32 24 -5 -2 -5 4 1 14 5 11 8 29 7 41 -1
16 4 23 17 23 10 0 18 5 18 11 0 5 -4 7 -10 4 -6 -3 -7 1 -4 10 4 9 3 15 -2
14 -21 -4 -24 2 -10 16 10 11 13 23 7 38 -4 12 -7 41 -6 65 1 23 -2 42 -8 42
-6 0 -5 5 1 13 6 7 7 18 2 26 -4 8 -6 21 -2 29 3 9 1 13 -4 9 -5 -3 -9 12 -8
34 0 21 -3 39 -9 39 -5 0 -7 7 -3 15 3 8 1 15 -5 15 -6 0 -8 7 -5 16 3 8 2 13
-3 10 -8 -5 -25 29 -22 47 1 4 -6 7 -14 7 -8 0 -15 6 -15 14 0 8 -9 18 -20 21
-11 3 -20 11 -20 16 0 6 -4 7 -10 4 -5 -3 -10 -2 -10 4 0 13 -61 26 -149 30
-10 1 -11 4 -2 14 6 8 8 17 4 20 -3 4 -1 7 6 7 7 0 9 5 6 10 -3 6 -2 10 4 10
5 0 8 12 6 26 -1 14 3 28 10 30 12 5 22 37 31 98 2 17 7 32 12 35 4 3 9 17 10
31 2 14 8 26 13 28 5 2 5 12 -1 22 -7 13 -6 23 3 32 7 7 12 22 12 33 0 11 4
29 9 40 5 11 9 32 8 47 -1 15 2 29 6 32 5 3 8 21 7 40 -1 20 2 36 6 36 5 0 7
10 5 22 -2 13 1 29 6 35 7 9 6 13 -3 13 -9 1 -8 5 5 15 12 9 15 15 7 15 -10 0
-11 3 -2 14 8 10 9 16 1 21 -6 4 -7 13 -1 23 4 9 6 22 4 29 -2 6 1 14 6 18 8
4 8 12 0 27 -9 16 -8 19 2 13 8 -6 11 -4 7 7 -4 8 -2 21 2 28 5 8 6 18 3 24
-9 14 -9 65 0 59 4 -2 7 5 7 17 0 14 -4 19 -12 15 -7 -4 -6 -1 2 7 17 15 23
48 8 48 -5 0 -6 5 -2 11 11 19 10 438 -1 443 -5 3 -5 5 2 5 8 1 9 10 3 30 -5
19 -4 33 3 40 8 8 8 11 -1 11 -8 0 -9 7 -2 25 5 14 6 25 1 25 -5 0 -7 14 -4
31 3 24 2 29 -9 23 -10 -6 -11 -4 -3 7 9 11 12 86 5 109 -1 3 -2 30 -2 60 0
30 -5 61 -11 69 -9 11 -9 13 0 8 8 -5 11 0 10 13 -1 11 -6 20 -12 20 -5 0 -3
5 5 10 12 8 12 10 1 10 -11 0 -11 3 -1 15 7 8 8 15 3 15 -4 0 -9 28 -10 63 0
34 -1 90 -2 125 -1 45 -4 61 -13 56 -7 -5 -8 -3 -3 7 11 17 13 99 2 99 -4 0
-3 9 3 20 8 14 8 20 0 20 -8 0 -8 6 0 20 6 11 7 20 2 20 -4 0 -8 9 -9 20 -1
11 3 20 8 20 6 0 7 6 2 13 -12 20 -12 37 0 37 7 0 7 4 -2 9 -8 5 -11 16 -8 25
3 8 2 18 -4 22 -7 4 -6 10 1 19 8 10 8 15 0 20 -8 5 -8 10 0 20 8 10 7 16 -7
24 -10 6 -13 11 -6 11 13 0 13 97 -1 119 -6 10 -5 12 2 7 7 -4 12 -3 12 3 0 5
-4 12 -10 16 -6 3 -6 15 0 30 5 13 5 27 1 30 -5 3 -8 21 -7 40 1 19 -1 35 -5
35 -3 0 -5 10 -4 23 1 12 -1 29 -6 38 -5 9 -3 21 3 27 9 9 9 12 1 12 -6 0 -12
16 -12 35 -3 59 -4 65 -15 65 -6 0 -5 4 3 9 9 6 10 11 2 15 -6 4 -11 25 -11
47 0 21 -4 39 -10 39 -5 0 -7 7 -4 15 4 8 2 21 -3 28 -4 6 -8 24 -7 40 0 15
-4 27 -9 27 -6 0 -8 2 -5 6 3 3 0 26 -8 51 -8 25 -11 49 -9 54 3 4 -2 12 -11
17 -11 6 -13 12 -6 16 8 5 5 17 -8 40 -14 26 -16 37 -7 46 9 10 9 11 0 6 -8
-4 -13 -1 -13 8 0 9 -6 16 -12 16 -9 0 -8 4 2 10 12 7 12 10 1 10 -7 0 -11 6
-7 15 3 8 -2 19 -12 24 -14 8 -14 11 -2 11 12 1 11 3 -3 14 -12 9 -14 15 -6
18 8 3 6 9 -6 21 -9 10 -14 24 -11 33 3 8 -1 17 -9 20 -8 4 -12 10 -9 15 3 5
1 9 -4 9 -5 0 -9 6 -9 13 -1 25 -8 42 -23 54 -8 6 -12 15 -8 18 4 4 1 14 -7
22 -8 8 -15 23 -15 34 0 11 -7 19 -16 19 -8 0 -12 5 -9 10 3 6 1 10 -5 10 -6
0 -8 5 -5 10 3 6 3 10 -2 10 -8 0 -43 55 -42 66 0 3 -10 14 -22 25 -12 10 -19
19 -15 19 4 0 1 6 -6 14 -7 8 -22 26 -33 40 -11 15 -26 33 -32 41 -7 7 -13 16
-13 20 0 3 -11 18 -25 33 -14 15 -32 34 -40 43 -8 9 -15 21 -15 28 0 7 -3 10
-7 8 -5 -2 -16 4 -25 15 -10 10 -15 18 -12 18 3 0 -1 7 -10 15 -8 8 -20 15
-26 15 -6 0 -9 3 -7 8 3 4 -11 21 -29 39 -19 18 -34 30 -34 28 0 -2 -12 7 -27
21 -51 46 -68 60 -105 85 -21 13 -38 29 -38 36 0 6 -9 9 -20 6 -11 -3 -20 0
-20 5 0 11 -112 92 -126 92 -4 0 -15 9 -25 21 -9 11 -19 19 -21 18 -4 -4 -61
33 -70 46 -4 5 -8 6 -8 2 0 -5 -13 1 -29 12 -16 12 -34 21 -40 21 -6 0 -11 4
-11 8 0 5 -18 15 -40 22 -22 7 -40 17 -40 23 0 5 -7 7 -15 3 -8 -3 -15 -1 -15
5 0 6 -4 7 -10 4 -5 -3 -10 -1 -10 4 0 6 -9 11 -20 11 -11 0 -20 4 -20 8 0 4
-12 9 -27 10 -16 1 -29 7 -31 12 -2 6 -12 10 -22 10 -29 0 -50 11 -43 23 4 6
0 8 -10 4 -18 -7 -67 10 -79 28 -5 6 -8 4 -8 -5 0 -12 -2 -13 -9 -1 -5 7 -14
10 -20 7 -6 -4 -11 -2 -11 4 0 6 -4 8 -10 5 -5 -3 -10 -2 -10 2 0 5 -12 10
-26 11 -15 1 -33 7 -40 13 -7 6 -18 8 -24 4 -5 -3 -13 1 -16 9 -5 12 -10 13
-25 5 -13 -6 -19 -6 -19 1 0 5 -6 10 -14 10 -8 0 -17 6 -19 13 -4 9 -6 9 -6
-1 -1 -7 -5 -10 -11 -7 -14 9 -50 17 -82 18 -14 1 -24 5 -21 9 2 5 -5 9 -16 9
-29 2 -34 3 -48 12 -8 5 -13 3 -13 -5 0 -8 -4 -7 -11 4 -5 9 -16 15 -24 12 -8
-3 -20 -2 -27 2 -7 5 -26 10 -43 11 -42 3 -63 8 -71 16 -12 12 -26 8 -18 -5 6
-10 4 -10 -8 0 -9 7 -43 15 -75 17 -32 2 -58 5 -58 5 0 11 -319 15 -335 5 -6
-4 -10 0 -10 7 0 10 -2 10 -8 1 -4 -7 -16 -10 -27 -9 -11 2 -26 -1 -32 -7 -9
-6 -13 -6 -13 2 0 7 -5 9 -12 4 -18 -11 -41 -10 -57 2 -11 8 -13 7 -6 -4 6
-11 1 -13 -24 -9 -17 2 -31 1 -31 -3 0 -4 -8 -6 -17 -4 -10 1 -26 -2 -35 -7
-11 -5 -18 -5 -18 1 0 6 -11 6 -30 -1 -17 -5 -37 -8 -45 -4 -8 3 -17 1 -20 -4
-3 -5 -12 -7 -20 -3 -9 3 -15 -1 -15 -8 0 -12 -2 -12 -9 0 -6 9 -10 10 -16 2
-5 -9 -11 -9 -23 1 -12 10 -14 10 -8 1 7 -12 -25 -18 -81 -16 -7 1 -13 -3 -13
-7 0 -5 -8 -9 -17 -9 -24 0 -65 -7 -85 -16 -11 -4 -15 -2 -13 7 9 39 19 58 29
58 6 0 4 5 -4 10 -10 6 -11 10 -2 10 6 0 12 7 12 15 0 8 3 15 8 15 4 0 12 11
19 25 8 19 8 24 0 19 -7 -3 -3 2 8 11 11 9 19 21 17 26 -1 5 2 9 8 9 5 0 7 6
4 14 -3 7 2 16 11 20 9 3 13 10 10 16 -3 5 -1 10 5 10 6 0 8 5 5 10 -3 6 0 10
7 10 7 0 19 12 25 28 7 15 23 39 36 54 13 15 32 39 43 53 10 15 30 40 44 56
14 16 43 50 65 75 22 26 65 73 96 106 30 32 54 58 52 58 -2 0 8 11 22 25 14
14 25 30 25 36 0 6 6 7 13 3 6 -4 9 -4 5 0 -3 4 0 25 7 47 8 21 12 39 8 39 -3
0 -1 6 4 13 13 17 14 57 2 57 -6 0 -7 9 -4 20 4 13 2 20 -7 21 -55 5 -88 5
-93 0z m670 -1199 c-3 -3 -11 0 -18 7 -9 10 -8 11 6 5 10 -3 15 -9 12 -12z
m76 -15 c-10 -9 -11 -8 -5 6 3 10 9 15 12 12 3 -3 0 -11 -7 -18z m29 -17 c0
-5 -4 -10 -10 -10 -5 0 -10 5 -10 10 0 6 5 10 10 10 6 0 10 -4 10 -10z m-1383
-15 c0 -8 -4 -15 -9 -15 -10 0 -11 14 -1 23 9 10 10 9 10 -8z m1878 -75 c3 -6
-1 -7 -9 -4 -18 7 -21 14 -7 14 6 0 13 -4 16 -10z m285 -113 c0 -5 -7 -4 -15
3 -11 9 -15 9 -15 1 0 -7 -4 -9 -10 -6 -5 3 -10 0 -10 -7 0 -7 -7 -2 -16 10
-8 12 -12 26 -9 32 7 11 75 -19 75 -33z m105 -117 c3 -6 -1 -7 -9 -4 -18 7
-21 14 -7 14 6 0 13 -4 16 -10z m-2410 -48 c-3 -3 -11 0 -18 7 -9 10 -8 11 6
5 10 -3 15 -9 12 -12z m-922 -67 c-3 -9 -8 -14 -10 -11 -3 3 -2 9 2 15 9 16
15 13 8 -4z m1344 -120 c0 -8 -4 -12 -9 -9 -5 3 -6 10 -3 15 9 13 12 11 12 -6z
m56 -3 c-8 -5 -7 -10 2 -19 11 -10 15 -9 18 2 4 12 5 11 3 -1 0 -10 -9 -18
-19 -20 -9 -1 -15 2 -11 7 3 5 -2 12 -10 15 -23 9 -20 19 6 21 13 1 18 -1 11
-5z m-1673 -42 c0 -5 -5 -10 -11 -10 -5 0 -7 5 -4 10 3 6 8 10 11 10 2 0 4 -4
4 -10z m1395 -8 c-3 -3 -11 0 -18 7 -9 10 -8 11 6 5 10 -3 15 -9 12 -12z
m-1352 -9 c-7 -2 -9 -12 -6 -21 6 -18 5 -17 -14 8 -10 13 -8 16 10 17 12 0 17
-1 10 -4z m42 -3 c3 -6 -1 -7 -9 -4 -18 7 -21 14 -7 14 6 0 13 -4 16 -10z
m1615 0 c0 -5 -2 -10 -4 -10 -3 0 -8 5 -11 10 -3 6 -1 10 4 10 6 0 11 -4 11
-10z m-1624 -37 c-2 -9 -9 -19 -17 -21 -11 -3 -11 -1 1 7 8 6 11 11 7 11 -5 0
-5 5 -2 10 9 15 14 12 11 -7z m4339 -352 c3 -5 2 -12 -3 -15 -5 -3 -9 1 -9 9
0 17 3 19 12 6z m-5037 -75 c-7 -8 -15 -12 -17 -11 -5 6 10 25 20 25 5 0 4 -6
-3 -14z m5102 4 c0 -5 -4 -10 -10 -10 -5 0 -10 5 -10 10 0 6 5 10 10 10 6 0
10 -4 10 -10z m-1426 -36 c3 -8 2 -12 -4 -9 -6 3 -10 10 -10 16 0 14 7 11 14
-7z m1486 -47 c0 -2 -8 -3 -18 -4 -10 -1 -19 5 -19 12 0 10 5 11 19 4 10 -5
18 -11 18 -12z m-5200 3 c0 -5 -7 -10 -15 -10 -8 0 -15 5 -15 10 0 6 7 10 15
10 8 0 15 -4 15 -10z m3873 -87 c-3 -7 -6 -13 -8 -13 -2 0 -5 6 -8 13 -3 8 1
14 8 14 7 0 11 -6 8 -14z m22 -51 c-14 -10 -13 -28 4 -44 11 -11 12 -9 6 12
-4 14 -4 22 0 18 9 -9 16 -58 8 -58 -3 0 -14 9 -23 20 -15 17 -18 34 -11 58 1
1 7 2 14 2 8 0 8 -3 2 -8z m1331 -22 c0 -12 -4 -16 -9 -11 -5 5 -6 14 -3 20
10 15 12 14 12 -9z m14 -39 c0 -6 -4 -12 -8 -15 -5 -3 -9 1 -9 9 0 8 4 15 9
15 4 0 8 -4 8 -9z m67 -117 c0 -6 -11 -11 -24 -11 -21 0 -29 7 -18 18 9 10 42
4 42 -7z m1 -39 c3 -3 -4 -4 -16 -2 -12 2 -24 6 -28 10 -4 3 4 4 16 2 12 -2
25 -7 28 -10z m-5257 -72 c13 -16 12 -17 -3 -4 -10 7 -18 15 -18 17 0 8 8 3
21 -13z m5308 -140 c-7 -19 -5 -23 9 -23 13 0 14 -2 4 -9 -8 -4 -14 -12 -14
-16 0 -4 6 -12 14 -16 10 -7 10 -9 -2 -9 -13 0 -13 -1 0 -10 9 -6 10 -10 3
-10 -6 0 -15 5 -18 10 -4 6 -12 7 -18 4 -9 -5 -8 -3 0 6 10 11 10 17 0 29 -9
11 -9 13 0 8 9 -6 11 2 9 26 -2 22 1 34 9 34 10 0 11 -7 4 -24z m-5744 8 c3
-5 2 -12 -3 -15 -5 -3 -9 1 -9 9 0 17 3 19 12 6z m-108 -57 c-8 -8 25 -44 35
-38 15 9 8 -3 -9 -17 -9 -8 -14 -9 -10 -3 3 6 -3 18 -14 27 -11 10 -19 12 -19
5 0 -6 -3 -8 -6 -5 -7 6 13 37 24 37 3 0 3 -3 -1 -6z m93 -44 c0 -5 -5 -10
-11 -10 -5 0 -7 5 -4 10 3 6 8 10 11 10 2 0 4 -4 4 -10z m3985 0 c-3 -5 -12
-10 -18 -10 -7 0 -6 4 3 10 19 12 23 12 15 0z m-3947 -26 c0 -17 -3 -22 -8
-13 -5 6 -6 18 -3 26 8 19 11 16 11 -13z m5722 12 c0 -3 -4 -8 -10 -11 -5 -3
-10 -1 -10 4 0 6 5 11 10 11 6 0 10 -2 10 -4z m-5750 -10 c0 -2 -7 -7 -16 -10
-8 -3 -12 -2 -9 4 6 10 25 14 25 6z m5763 -13 c-4 -10 -2 -14 5 -9 6 3 13 2
17 -3 3 -6 -3 -8 -14 -6 -11 2 -25 -3 -32 -11 -10 -13 -14 -12 -30 5 -24 26
-24 31 2 26 12 -3 29 0 38 5 21 12 21 12 14 -7z m27 -38 c0 -1 -8 -9 -17 -16
-14 -12 -16 -12 -9 1 4 8 0 6 -8 -4 -16 -20 -16 -20 -16 0 0 12 3 23 6 26 5 5
44 -1 44 -7z m-5780 1 c0 -2 -7 -7 -16 -10 -8 -3 -12 -2 -9 4 6 10 25 14 25 6z
m33 -22 c-7 -19 -10 -18 -16 5 -3 13 -1 18 9 14 7 -2 10 -11 7 -19z m-30 -21
c3 -5 -6 -9 -19 -9 -13 -1 -21 2 -18 7 6 11 31 12 37 2z m24 -35 c-3 -8 -6 -5
-6 6 -1 11 2 17 5 13 3 -3 4 -12 1 -19z m349 -76 c-6 -5 -36 23 -36 34 0 4 9
-1 20 -11 11 -10 18 -20 16 -23z m4544 13 c0 -12 -19 -12 -23 0 -4 9 -1 12 9
8 7 -3 14 -7 14 -8z m-4752 -47 c10 -12 10 -18 1 -24 -7 -4 -9 -3 -5 4 3 6 2
13 -4 17 -5 3 -10 11 -10 17 0 6 1 9 3 7 1 -2 8 -11 15 -21z m207 3 c-9 -8
-36 -10 -30 -2 2 4 11 8 20 8 8 0 13 -3 10 -6z m-145 -35 c0 -2 -7 -9 -15 -16
-13 -11 -14 -10 -9 4 5 14 24 23 24 12z m90 0 c0 -3 -4 -8 -10 -11 -5 -3 -10
-1 -10 4 0 6 5 11 10 11 6 0 10 -2 10 -4z m1160 -346 c0 -5 -5 -10 -11 -10 -5
0 -7 5 -4 10 3 6 8 10 11 10 2 0 4 -4 4 -10z m-20 -48 c0 -5 -9 -19 -19 -31
-19 -22 -20 -22 -30 -2 -14 25 -14 31 0 31 5 0 7 -5 3 -12 -4 -6 3 -4 17 5 27
19 29 20 29 9z m1505 -52 c3 -6 -1 -7 -9 -4 -18 7 -21 14 -7 14 6 0 13 -4 16
-10z m-1570 -30 c-10 -11 -22 -20 -28 -20 -5 0 1 9 14 20 31 25 37 25 14 0z
m-1760 -49 c3 -5 2 -12 -3 -15 -5 -3 -9 1 -9 9 0 17 3 19 12 6z m-78 -57 c-3
-3 -12 -4 -19 -1 -8 3 -5 6 6 6 11 1 17 -2 13 -5z m-23 -46 c-3 -4 -11 -5 -19
-1 -21 7 -19 12 4 10 11 0 18 -5 15 -9z m5896 -28 c-8 -5 -19 -10 -25 -10 -5
0 -3 5 5 10 8 5 20 10 25 10 6 0 3 -5 -5 -10z m-56 -9 c-9 -9 -34 -9 -34 -1 0
5 9 8 20 7 10 -1 17 -3 14 -6z m-4180 -89 c3 -5 -1 -9 -9 -9 -8 0 -12 4 -9 9
3 4 7 8 9 8 2 0 6 -4 9 -8z m4086 -6 c0 -3 -4 -8 -10 -11 -5 -3 -10 -1 -10 4
0 6 5 11 10 11 6 0 10 -2 10 -4z m-4157 -83 c-6 -16 -19 -17 -28 -3 -4 6 -1 9
7 8 8 -2 12 5 10 17 -2 15 -1 17 7 6 5 -8 7 -20 4 -28z m-15 -60 c-9 -10 -18
-25 -21 -33 -4 -10 -6 -8 -6 7 -1 12 7 27 17 32 25 15 27 13 10 -6z m-71 -93
c-1 -11 -4 -20 -8 -20 -4 0 -6 11 -5 24 0 13 4 22 8 20 4 -2 6 -13 5 -24z
m3698 20 c-3 -5 -1 -10 6 -10 7 0 10 -3 6 -6 -9 -9 -28 6 -22 17 4 5 8 9 11 9
3 0 2 -4 -1 -10z m-2942 -58 c-3 -7 -6 -12 -7 -10 -1 2 -10 13 -20 25 -18 22
-18 22 7 10 14 -6 22 -17 20 -25z m-782 -15 c-6 -8 -7 -18 -3 -22 4 -5 1 -5
-5 -1 -8 4 -13 2 -14 -6 0 -11 -2 -11 -6 0 -3 7 3 20 13 27 24 18 29 19 15 2z
m-1275 -37 c0 -12 -4 -16 -9 -11 -5 5 -6 14 -3 20 10 15 12 14 12 -9z m1244
-21 c0 -5 -4 -9 -8 -9 -5 0 -9 7 -9 15 0 8 4 12 9 9 4 -3 8 -9 8 -15z m4016
-5 c-1 -8 -6 -17 -12 -21 -5 -4 -6 -4 -2 1 4 5 3 14 -2 21 -7 8 -5 12 4 12 8
0 13 -6 12 -13z m-41 -13 c3 -5 2 -12 -3 -15 -5 -3 -9 1 -9 9 0 17 3 19 12 6z
m-5525 -91 c-8 -5 -13 -10 -10 -11 34 -6 43 -9 48 -15 4 -4 -1 -4 -10 -1 -10
4 -18 2 -18 -3 0 -6 -5 -10 -11 -10 -5 0 -7 5 -4 10 3 6 -1 13 -10 16 -13 6
-14 8 -3 15 7 5 18 9 23 9 6 0 3 -5 -5 -10z m46 -56 c-1 -8 -6 -17 -11 -21 -4
-4 -5 -3 -1 4 3 6 2 14 -4 18 -5 3 -10 -2 -10 -11 0 -10 -3 -15 -6 -11 -4 3
-4 12 -1 20 7 17 35 18 33 1z m41 -6 c1 -10 -3 -18 -9 -18 -6 0 -8 3 -5 7 4 3
2 11 -3 18 -7 8 -6 12 3 12 7 0 14 -9 14 -19z m578 -6 c-3 -3 -11 0 -18 7 -9
10 -8 11 6 5 10 -3 15 -9 12 -12z m102 3 c0 -8 -4 -12 -9 -9 -5 3 -6 10 -3 15
9 13 12 11 12 -6z m183 -32 c0 -3 -7 0 -15 7 -8 6 -20 8 -27 4 -7 -4 -10 -4
-6 1 4 4 2 15 -5 24 -6 8 3 5 21 -8 17 -12 32 -25 32 -28z m-260 22 c0 -8 -4
-15 -10 -15 -5 0 -7 7 -4 15 4 8 8 15 10 15 2 0 4 -7 4 -15z m123 -61 c7 1 9
1 4 -1 -4 -3 -5 -9 -1 -14 3 -5 -1 -9 -8 -9 -8 0 -14 10 -15 23 0 12 1 17 4
10 2 -7 10 -11 16 -9z m-33 -8 c0 -2 -7 -7 -16 -10 -8 -3 -12 -2 -9 4 6 10 25
14 25 6z m-10 -40 c0 -3 -4 -8 -10 -11 -5 -3 -10 -1 -10 4 0 6 5 11 10 11 6 0
10 -2 10 -4z m-1117 -455 c3 -13 1 -18 -9 -14 -7 2 -10 11 -7 19 7 19 10 18
16 -5z m924 -43 c-3 -7 -5 -2 -5 12 0 14 2 19 5 13 2 -7 2 -19 0 -25z m4543
-24 c0 -8 -19 -13 -24 -6 -3 5 1 9 9 9 8 0 15 -2 15 -3z m1303 -33 c-5 -3 -8
-16 -7 -28 1 -15 -3 -20 -13 -16 -12 5 -12 7 -1 15 10 8 11 11 0 15 -10 4 -10
8 -1 19 6 8 16 11 21 8 6 -4 6 -9 1 -13z m-6775 -124 c-1 -7 3 -22 10 -34 9
-16 9 -23 2 -23 -6 0 -9 -4 -5 -9 3 -5 1 -12 -4 -15 -5 -4 -8 6 -6 21 2 16 0
33 -3 38 -11 18 -12 46 -2 40 6 -4 9 -12 8 -18z m622 -8 c0 -5 3 -8 8 -6 14 9
41 -28 32 -43 -8 -13 -10 -12 -10 3 0 9 -7 17 -15 17 -8 0 -15 -5 -15 -11 0
-5 5 -7 12 -3 7 4 8 3 4 -5 -6 -9 -11 -9 -22 0 -7 6 -12 15 -9 19 3 5 -2 16
-11 24 -14 15 -14 16 5 16 12 0 21 -5 21 -11z m-25 -18 c3 -5 2 -12 -3 -15 -5
-3 -9 1 -9 9 0 17 3 19 12 6z m5819 -546 c3 -8 1 -15 -4 -15 -6 0 -10 7 -10
15 0 8 2 15 4 15 2 0 6 -7 10 -15z m-2747 -37 c-3 -8 -6 -5 -6 6 -1 11 2 17 5
13 3 -3 4 -12 1 -19z m2728 -8 c-3 -16 2 -20 21 -20 17 0 23 4 18 12 -4 6 -3
8 3 5 14 -9 8 -58 -9 -68 -10 -7 -8 -9 7 -10 11 -1 23 -1 28 0 4 0 7 -3 7 -9
0 -5 7 -7 15 -4 8 4 12 10 9 15 -3 5 2 6 10 3 16 -6 23 -25 9 -23 -17 3 -24
-2 -18 -11 10 -16 35 8 35 34 0 17 2 18 10 6 9 -14 11 -13 14 9 2 19 14 21 27
4 9 -11 10 -14 1 -9 -8 5 -15 -1 -21 -16 -6 -13 -10 -19 -10 -14 -1 5 -10 -1
-20 -13 -13 -15 -34 -23 -67 -27 -45 -4 -47 -4 -29 11 16 12 17 14 3 9 -10 -3
-18 -1 -18 5 0 6 5 11 12 11 6 0 8 3 4 7 -4 5 -14 -1 -22 -11 -10 -14 -14 -16
-14 -5 0 12 -2 12 -10 -1 -6 -9 -10 -10 -10 -3 0 6 -9 15 -20 18 -19 6 -19 7
-2 30 18 25 54 31 45 7 -5 -11 -7 -11 -14 0 -8 12 -13 4 -10 -15 1 -5 -3 -6
-9 -2 -5 3 -10 2 -10 -3 0 -6 6 -12 14 -15 17 -7 49 26 39 38 -5 4 -3 5 4 1 6
-3 15 -1 19 5 4 7 3 9 -4 5 -6 -3 -13 -2 -17 4 -4 6 -11 8 -16 5 -5 -4 -9 -1
-9 5 0 8 -6 8 -21 0 -11 -7 -23 -9 -26 -6 -3 3 6 10 20 15 18 7 25 15 21 26
-3 8 -1 15 4 15 6 0 9 -9 7 -20z m125 -28 c0 -5 -7 -9 -15 -9 -8 0 -12 4 -9 9
3 4 9 8 15 8 5 0 9 -4 9 -8z m80 2 c0 -8 -19 -13 -24 -6 -3 5 1 9 9 9 8 0 15
-2 15 -3z m-1905 -23 c-9 -8 -36 -10 -30 -2 2 4 11 8 20 8 8 0 13 -3 10 -6z
m1635 -5 c0 -2 -7 -7 -16 -10 -8 -3 -12 -2 -9 4 6 10 25 14 25 6z m190 -6 c0
-5 -2 -10 -4 -10 -3 0 -8 5 -11 10 -3 6 -1 10 4 10 6 0 11 -4 11 -10z m-6455
-50 c3 -6 -1 -7 -9 -4 -18 7 -21 14 -7 14 6 0 13 -4 16 -10z m-22 -35 c-10 -8
-20 -11 -23 -8 -3 3 1 8 8 10 6 3 10 9 7 14 -4 5 1 6 10 3 14 -6 14 -8 -2 -19z
m12 -24 c3 -5 2 -12 -3 -15 -5 -3 -9 1 -9 9 0 17 3 19 12 6z m325 -102 c0 -5
-4 -9 -8 -9 -5 0 -9 7 -9 15 0 8 4 12 9 9 4 -3 8 -9 8 -15z m6627 -584 c0 -8
-4 -12 -9 -9 -5 3 -6 10 -3 15 9 13 12 11 12 -6z m-33 -123 c3 -5 -1 -9 -9 -9
-8 0 -12 4 -9 9 3 4 7 8 9 8 2 0 6 -4 9 -8z m-1274 -72 c0 -5 -2 -10 -4 -10
-3 0 -8 5 -11 10 -3 6 -1 10 4 10 6 0 11 -4 11 -10z m1220 -80 c0 -5 -5 -10
-11 -10 -5 0 -7 5 -4 10 3 6 8 10 11 10 2 0 4 -4 4 -10z m-1423 -215 c0 -8 -4
-12 -9 -9 -5 3 -6 10 -3 15 9 13 12 11 12 -6z m486 -60 c-3 -9 1 -15 8 -15 11
0 11 -3 -1 -10 -23 -15 -33 -12 -26 6 5 14 4 15 -8 5 -12 -10 -14 -9 -12 6 2
11 10 17 21 15 11 -2 14 1 9 9 -4 8 -3 10 4 5 6 -4 9 -13 5 -21z m206 -24 c7
-5 11 -14 7 -19 -9 -15 -36 -4 -36 14 0 16 9 18 29 5z m66 -70 c3 -5 2 -12 -3
-15 -5 -3 -9 1 -9 9 0 17 3 19 12 6z m-2731 -989 c3 -5 -1 -9 -9 -9 -8 0 -12
4 -9 9 3 4 7 8 9 8 2 0 6 -4 9 -8z m843 -105 c0 -8 -6 -14 -14 -14 -9 0 -10 4
-2 14 6 7 12 13 14 13 1 0 2 -6 2 -13z m27 -42 c3 -8 1 -15 -4 -15 -6 0 -10 7
-10 15 0 8 2 15 4 15 2 0 6 -7 10 -15z m1141 -47 c-8 -5 -13 -13 -10 -19 9
-14 -2 -11 -19 7 -21 20 -10 40 12 22 14 -11 15 -10 9 6 -6 16 -5 17 8 6 15
-12 15 -14 0 -22z m-1121 13 c4 -5 -1 -8 -9 -7 -21 3 -31 16 -12 16 9 0 18 -4
21 -9z m1057 -34 c-10 -9 -11 -8 -5 6 3 10 9 15 12 12 3 -3 0 -11 -7 -18z m9
-21 c0 -2 -7 -7 -16 -10 -8 -3 -12 -2 -9 4 6 10 25 14 25 6z m26 -38 c4 -7 3
-8 -4 -4 -7 4 -12 3 -12 -2 0 -5 -7 -9 -16 -9 -14 0 -14 2 2 14 22 16 21 16
30 1z m-66 -88 c0 -5 -5 -10 -11 -10 -5 0 -7 5 -4 10 3 6 8 10 11 10 2 0 4 -4
4 -10z m-305 -299 c-3 -5 2 -17 11 -25 14 -15 11 -20 -8 -17 -5 0 -8 -5 -8
-13 0 -9 -7 -12 -18 -9 -22 5 -25 30 -5 37 9 4 12 1 7 -7 -4 -7 -1 -7 7 2 12
11 12 14 0 18 -11 5 -11 7 0 14 18 11 22 11 14 0z m49 -15 c-6 -16 -24 -13
-24 5 0 6 5 7 10 4 6 -3 10 -1 10 6 0 7 2 10 5 7 3 -3 3 -13 -1 -22z m-241
-164 c-35 -26 -52 -32 -58 -22 -4 6 -3 10 2 9 17 -3 33 1 32 9 -3 14 1 18 22
18 19 0 19 -1 2 -14z m-2453 -208 c0 -2 -9 0 -20 6 -11 6 -20 13 -20 16 0 2 9
0 20 -6 11 -6 20 -13 20 -16z m1870 8 c0 -5 22 -8 50 -7 27 1 47 -3 43 -8 -3
-5 -13 -7 -22 -4 -9 2 -22 -2 -29 -9 -6 -7 -23 -11 -38 -8 -14 3 -23 1 -20 -4
3 -5 -6 -9 -19 -8 -14 1 -25 4 -25 9 0 41 1 42 9 29 6 -10 10 -10 21 3 13 16
30 20 30 7z m-72 -37 c0 -13 -5 -22 -10 -19 -5 3 -15 0 -23 -6 -12 -10 -15 -9
-15 4 0 9 7 16 15 16 9 0 18 7 21 15 9 21 12 19 12 -10z m-326 -48 c-9 -10 -4
-12 22 -9 19 2 36 0 40 -6 3 -5 -6 -8 -19 -6 -14 1 -25 -1 -25 -4 0 -4 -11 -7
-24 -7 -13 0 -22 5 -18 10 9 18 24 35 29 35 3 0 1 -6 -5 -13z m-832 -51 c-4
-6 -9 -14 -9 -18 -2 -15 -15 -9 -22 9 -5 15 -2 19 17 19 15 0 20 -4 14 -10z
m85 -14 c-3 -3 -11 0 -18 7 -9 10 -8 11 6 5 10 -3 15 -9 12 -12z"/>
<path d="M1630 3667 c0 -14 -5 -29 -10 -32 -12 -7 -4 -25 11 -25 6 0 9 6 6 13
-2 6 2 19 10 28 12 14 11 18 -2 29 -13 11 -15 9 -15 -13z"/>
<path d="M1624 3583 c2 -10 6 -17 10 -16 15 3 16 11 2 22 -12 10 -14 9 -12 -6z"/>
<path d="M1588 3473 c3 -18 7 -22 13 -12 14 26 14 32 -2 34 -12 2 -15 -3 -11
-22z"/>
<path d="M1616 3461 c-3 -5 2 -15 12 -22 15 -12 16 -12 5 2 -7 9 -10 19 -6 22
3 4 4 7 0 7 -3 0 -8 -4 -11 -9z"/>
<path d="M8695 3420 c3 -5 8 -10 11 -10 2 0 4 5 4 10 0 6 -5 10 -11 10 -5 0
-7 -4 -4 -10z"/>
<path d="M8717 3383 c-4 -3 -7 -15 -7 -26 0 -25 9 -17 15 12 4 22 2 25 -8 14z"/>
<path d="M8695 3269 c3 -19 0 -27 -6 -23 -6 3 -5 -4 2 -17 11 -21 14 -21 17
-6 2 9 7 15 12 12 4 -3 10 3 12 13 3 11 0 19 -8 19 -7 0 -10 -5 -7 -10 4 -6 1
-7 -7 -2 -10 6 -10 11 4 20 15 12 15 13 -3 18 -16 4 -19 0 -16 -24z"/>
</g>
</svg>
